<?xml version="1.0" standalone="no"?>
<!DOCTYPE svg PUBLIC "-//W3C//DTD SVG 20010904//EN"
 "http://www.w3.org/TR/2001/REC-SVG-20010904/DTD/svg10.dtd">
<svg version="1.0" xmlns="http://www.w3.org/2000/svg"
 width="512.000000pt" height="512.000000pt" viewBox="0 0 512.000000 512.000000"
 preserveAspectRatio="xMidYMid meet">

<g transform="translate(0.000000,512.000000) scale(0.100000,-0.100000)"
fill="#000000" stroke="none">
<path d="M1319 3698 c-706 -621 -1292 -1137 -1301 -1147 -17 -16 -16 -18 13
-54 17 -21 54 -49 82 -64 45 -22 60 -25 127 -21 63 4 87 11 146 41 53 29 328
255 1140 942 588 498 1072 905 1076 905 4 0 450 -397 991 -882 638 -573 1007
-896 1048 -921 181 -107 364 -99 456 19 l23 31 -727 659 c-400 362 -967 876
-1259 1141 l-532 481 -1283 -1130z"/>
<path d="M4010 4005 l0 -304 248 -210 c136 -116 250 -211 255 -211 4 0 7 232
7 515 l0 515 -255 0 -255 0 0 -305z"/>
<path d="M1642 3183 l-941 -788 0 -1013 c-1 -1115 -4 -1058 60 -1081 22 -8
231 -11 679 -11 l647 0 6 398 c4 218 7 474 7 567 0 151 2 174 20 202 38 63 44
64 415 61 319 -3 335 -4 361 -24 15 -11 37 -33 48 -48 21 -27 21 -40 24 -587
l2 -559 651 0 c730 0 695 -4 730 73 18 40 19 81 19 1028 l0 986 -887 789
c-488 434 -890 790 -894 792 -3 1 -429 -352 -947 -785z"/>
</g>
</svg>
